<svg xmlns="http://www.w3.org/2000/svg" viewBox="0 0 382.2 102" width="382.2" height="102">
  <style>
    text {
      font-family: "SFMono-Regular", "Menlo", "Monaco", "Consolas", "Liberation Mono", "Courier New", monospace;
      font-size: 16px;
      white-space: pre;
    }
  </style>
  <!-- Line 0: bracket caps -->
  <text x="196.0" y="14.45" fill="#ff8700">▄▄</text>
  <text x="294.0" y="14.45" fill="#ff8700">▄▄</text>

  <!-- Line 1: t top + [ + A top + I top + ] -->
  <text x="156.8" y="31.45" fill="#808080">▒</text>
  <text x="166.6" y="31.45" fill="#a8a8a8">█</text>
  <text x="196.0" y="31.45" fill="#ff8700">█</text>
  <text x="205.8" y="31.45" fill="#808080">▒</text>
  <text x="215.6" y="31.45" fill="#eeeeee">█▀▀▄</text>
  <text x="264.6" y="31.45" fill="#eeeeee">▀█▀</text>
  <text x="303.8" y="31.45" fill="#ff8700">█</text>

  <!-- Line 2: c o n t [ A I ] n -->
  <text x="9.8" y="48.45" fill="#808080">▒</text>
  <text x="19.6" y="48.45" fill="#a8a8a8">█▀▄</text>
  <text x="58.8" y="48.45" fill="#a8a8a8">▄▀▀▄</text>
  <text x="98.0" y="48.45" fill="#808080">▒</text>
  <text x="107.8" y="48.45" fill="#a8a8a8">█▀▀▄</text>
  <text x="156.8" y="48.45" fill="#a8a8a8">▀█▀</text>
  <text x="196.0" y="48.45" fill="#ff8700">█</text>
  <text x="205.8" y="48.45" fill="#808080">▒</text>
  <text x="215.6" y="48.45" fill="#eeeeee">█▄▄█</text>
  <text x="264.6" y="48.45" fill="#808080">▒</text>
  <text x="274.4" y="48.45" fill="#eeeeee">█</text>
  <text x="303.8" y="48.45" fill="#ff8700">█</text>
  <text x="313.6" y="48.45" fill="#808080">▒</text>
  <text x="323.4" y="48.45" fill="#a8a8a8">█▀▀▄</text>

  <!-- Line 3: c o n t [ A I ] n  (body) -->
  <text x="9.8" y="65.45" fill="#808080">▒</text>
  <text x="19.6" y="65.45" fill="#a8a8a8">█</text>
  <text x="49.0" y="65.45" fill="#808080">▒</text>
  <text x="58.8" y="65.45" fill="#a8a8a8">█</text>
  <text x="78.4" y="65.45" fill="#808080">▒</text>
  <text x="88.2" y="65.45" fill="#a8a8a8">█</text>
  <text x="98.0" y="65.45" fill="#808080">▒</text>
  <text x="107.8" y="65.45" fill="#a8a8a8">█</text>
  <text x="127.4" y="65.45" fill="#808080">▒</text>
  <text x="137.2" y="65.45" fill="#a8a8a8">█</text>
  <text x="156.8" y="65.45" fill="#808080">▒</text>
  <text x="166.6" y="65.45" fill="#a8a8a8">█</text>
  <text x="196.0" y="65.45" fill="#ff8700">█</text>
  <text x="205.8" y="65.45" fill="#808080">▒</text>
  <text x="215.6" y="65.45" fill="#eeeeee">█</text>
  <text x="235.2" y="65.45" fill="#808080">▒</text>
  <text x="245.0" y="65.45" fill="#eeeeee">█</text>
  <text x="264.6" y="65.45" fill="#808080">▒</text>
  <text x="274.4" y="65.45" fill="#eeeeee">█</text>
  <text x="303.8" y="65.45" fill="#ff8700">█</text>
  <text x="313.6" y="65.45" fill="#808080">▒</text>
  <text x="323.4" y="65.45" fill="#a8a8a8">█</text>
  <text x="343.0" y="65.45" fill="#808080">▒</text>
  <text x="352.8" y="65.45" fill="#a8a8a8">█</text>

  <!-- Line 4: c o n t [ A I ] n  (bottom) -->
  <text x="19.6" y="82.45" fill="#a8a8a8">▀▀▀</text>
  <text x="68.6" y="82.45" fill="#a8a8a8">▀▀</text>
  <text x="107.8" y="82.45" fill="#a8a8a8">▀</text>
  <text x="137.2" y="82.45" fill="#a8a8a8">▀</text>
  <text x="166.6" y="82.45" fill="#a8a8a8">▀</text>
  <text x="196.0" y="82.45" fill="#ff8700">█</text>
  <text x="215.6" y="82.45" fill="#eeeeee">▀</text>
  <text x="245.0" y="82.45" fill="#eeeeee">▀</text>
  <text x="264.6" y="82.45" fill="#eeeeee">▀▀▀</text>
  <text x="303.8" y="82.45" fill="#ff8700">█</text>
  <text x="323.4" y="82.45" fill="#a8a8a8">▀</text>
  <text x="352.8" y="82.45" fill="#a8a8a8">▀</text>

  <!-- Line 5: bracket bottoms -->
  <text x="196.0" y="99.45" fill="#ff8700">▀▀</text>
  <text x="294.0" y="99.45" fill="#ff8700">▀▀</text>
</svg>
